<mxfile host="app.diagrams.net" modified="2024-07-07T09:48:25.883Z" agent="Mozilla/5.0 (Macintosh; Intel Mac OS X 10_15_7) AppleWebKit/537.36 (KHTML, like Gecko) Chrome/125.0.0.0 Safari/537.36" version="24.6.4" etag="LwxAEy7KHAlPJYyNS_x6" type="github">
  <diagram name="Page-1" id="4mNHOL3SoGaYjxTZYr3n">
    <mxGraphModel>
      <root>
        <mxCell id="0" />
        <mxCell id="1" parent="0" />
      </root>
    </mxGraphModel>
  </diagram>
</mxfile>
